<svg width="268" height="376" viewBox="0 0 268 376" fill="none" xmlns="http://www.w3.org/2000/svg">
<g clip-path="url(#clip0_3076_21074)">
<path d="M4.35233 221.938C34.1936 251.78 82.5759 251.78 112.417 221.939C142.258 192.097 142.258 143.715 112.417 113.874L-167.234 -165.777C-197.075 -195.619 -245.457 -195.619 -275.299 -165.777C-305.14 -135.936 -305.14 -87.5538 -275.299 -57.7125L4.35233 221.938Z" fill="#FC6575"/>
<path d="M243.847 245.304C214.006 215.463 165.623 215.463 135.782 245.304C105.941 275.145 105.941 323.527 135.782 353.369C165.623 383.21 214.006 383.21 243.847 353.369C273.688 323.527 273.688 275.145 243.847 245.304Z" fill="#FC6575"/>
</g>
<defs>
<clipPath id="clip0_3076_21074">
<rect width="268" height="376" fill="white"/>
</clipPath>
</defs>
</svg>
