<svg width="616" height="674" viewBox="0 0 616 674" fill="none" xmlns="http://www.w3.org/2000/svg">
<g clip-path="url(#clip0_3028_15330)">
<path d="M614.288 280.738C614.288 320.405 582.131 352.562 542.464 352.562V352.562C502.798 352.562 470.641 320.405 470.641 280.738L470.641 73.1776C470.641 33.5108 502.798 1.35449 542.465 1.35449V1.35449C582.131 1.3545 614.288 33.5108 614.288 73.1776L614.288 280.738Z" fill="#6BD4F2"/>
<circle cx="542.464" cy="455.443" r="71.8231" transform="rotate(-180 542.464 455.443)" fill="#6BD4F2"/>
<rect width="143.646" height="702.818" rx="71.8231" transform="matrix(-1 5.16191e-08 -2.98023e-08 1 404.494 380.98)" fill="#FFD929"/>
<ellipse rx="72.2294" ry="71.8231" transform="matrix(1 0 0 -1 157.589 454.451)" fill="#FFD929"/>
<path d="M331.225 171.776C370.891 171.776 403.048 203.933 403.048 243.599V243.599C403.048 283.266 370.892 315.423 331.225 315.423L-73.4696 315.423C-113.136 315.423 -145.293 283.266 -145.293 243.599V243.599C-145.293 203.933 -113.137 171.776 -73.4697 171.776L331.225 171.776Z" fill="#FC6575"/>
</g>
<defs>
<clipPath id="clip0_3028_15330">
<rect width="616" height="674" fill="white"/>
</clipPath>
</defs>
</svg>
