<svg width="32" height="32" viewBox="0 0 32 32" fill="none" xmlns="http://www.w3.org/2000/svg">
<g clip-path="url(#clip0_3006_14239)">
<path d="M3.78508 16.2363C2.92343 14.7439 3.43477 12.8355 4.92719 11.9739L24.0682 0.922809C25.5606 0.0611613 27.469 0.572501 28.3306 2.06492C29.1923 3.55734 28.6809 5.46568 27.1885 6.32733L8.04749 17.3784C6.55507 18.2401 4.64673 17.7287 3.78508 16.2363Z" fill="#FC6575"/>
<path d="M7.68546 22.9919C6.82381 21.4995 7.33515 19.5912 8.82757 18.7295L23.3522 10.3437C24.8446 9.48206 26.753 9.9934 27.6146 11.4858C28.4763 12.9782 27.9649 14.8866 26.4725 15.7482L11.9479 24.134C10.4555 24.9957 8.5471 24.4844 7.68546 22.9919Z" fill="#FFD929"/>
<path d="M11.5858 29.7476C10.7242 28.2552 11.2355 26.3468 12.7279 25.4852L20.6095 20.9348C22.1019 20.0731 24.0103 20.5844 24.8719 22.0769C25.7336 23.5693 25.2222 25.4776 23.7298 26.3393L15.8482 30.8897C14.3558 31.7514 12.4475 31.24 11.5858 29.7476Z" fill="#6BD4F2"/>
</g>
<defs>
<clipPath id="clip0_3006_14239">
<rect width="32" height="32" fill="white"/>
</clipPath>
</defs>
</svg>
