<svg width="328" height="660" viewBox="0 0 328 660" fill="none" xmlns="http://www.w3.org/2000/svg">
<g clip-path="url(#clip0_3098_22904)">
<path d="M230.262 399.392C250.096 433.744 238.326 477.671 203.973 497.504C169.621 517.337 125.694 505.567 105.861 471.215L-131.584 59.9476C-151.418 25.5951 -139.648 -18.3312 -105.295 -38.1646C-70.9427 -57.998 -27.0164 -46.228 -7.18297 -11.8755L230.262 399.392Z" fill="#6BD4F2"/>
<path d="M193.217 622.514C173.383 588.162 185.153 544.235 219.506 524.402C253.858 504.569 297.784 516.339 317.618 550.691C337.451 585.044 325.681 628.97 291.329 648.803C256.976 668.637 213.05 656.867 193.217 622.514Z" fill="#6BD4F2"/>
</g>
<defs>
<clipPath id="clip0_3098_22904">
<rect width="328" height="660" fill="white"/>
</clipPath>
</defs>
</svg>
