<svg width="36" height="42" viewBox="0 0 36 42" fill="none" xmlns="http://www.w3.org/2000/svg">
<path d="M24.9787 11.7282L9.06333 27.9111C8.53643 28.4926 8.25333 29.2544 8.27264 30.0389C8.29196 30.8234 8.61221 31.5704 9.16709 32.1253C9.72196 32.6802 10.469 33.0004 11.2535 33.0197C12.0379 33.039 12.7998 32.7559 13.3813 32.229L32.3537 12.9892C33.4075 11.8262 33.9737 10.3024 33.935 8.73349C33.8964 7.16453 33.2559 5.67051 32.1462 4.56076C31.0364 3.451 29.5424 2.8105 27.9734 2.77187C26.4045 2.73324 24.8807 3.29944 23.7177 4.35324L4.74535 23.5931C3.02755 25.3109 2.0625 27.6407 2.0625 30.07C2.0625 32.4994 3.02755 34.8292 4.74535 36.547C6.46315 38.2648 8.79298 39.2299 11.2223 39.2299C13.6517 39.2299 15.9815 38.2648 17.6993 36.547L33.3854 20.8991" stroke="#2172E2" stroke-width="3" stroke-linejoin="round"/>
</svg>
