<svg width="348" height="456" viewBox="0 0 348 456" fill="none" xmlns="http://www.w3.org/2000/svg">
<g clip-path="url(#clip0_3074_20552)">
<path d="M85.6453 301.886C115.487 331.728 163.869 331.728 193.71 301.886C223.551 272.045 223.551 223.663 193.71 193.822L-85.9409 -85.8295C-115.782 -115.671 -164.164 -115.671 -194.006 -85.8295C-223.847 -55.9882 -223.847 -7.60591 -194.006 22.2354L85.6453 301.886Z" fill="#6BD4F2"/>
<path d="M325.14 325.252C295.299 295.41 246.916 295.41 217.075 325.252C187.234 355.093 187.234 403.475 217.075 433.317C246.916 463.158 295.299 463.158 325.14 433.317C354.981 403.475 354.981 355.093 325.14 325.252Z" fill="#6BD4F2"/>
</g>
<defs>
<clipPath id="clip0_3074_20552">
<rect width="348" height="456" fill="white"/>
</clipPath>
</defs>
</svg>
