<svg width="280" height="524" viewBox="0 0 280 524" fill="none" xmlns="http://www.w3.org/2000/svg">
<g clip-path="url(#clip0_3074_20566)">
<path d="M23.9294 266.588C-6.08066 236.578 -6.08064 187.922 23.9295 157.912C53.9396 127.902 102.596 127.902 132.606 157.912L402.834 428.141L294.158 536.817L23.9294 266.588Z" fill="#FFD929"/>
<path d="M287.303 97.3301C276.381 138.094 234.294 162.235 193.299 151.251C152.304 140.266 127.926 98.3158 138.849 57.5519C149.772 16.7879 191.859 -7.35317 232.853 3.63129C273.848 14.6157 298.226 56.5661 287.303 97.3301Z" fill="#FFD929"/>
<path d="M287.303 97.3301C276.381 138.094 234.294 162.235 193.299 151.251C152.304 140.266 127.926 98.3158 138.849 57.5519C149.772 16.7879 191.859 -7.35317 232.853 3.63129C273.848 14.6157 298.226 56.5661 287.303 97.3301Z" fill="#FFD929"/>
</g>
<defs>
<clipPath id="clip0_3074_20566">
<rect width="280" height="524" fill="white"/>
</clipPath>
</defs>
</svg>
