<svg width="256" height="256" viewBox="0 0 256 256" fill="none" xmlns="http://www.w3.org/2000/svg">
<g clip-path="url(#clip0_3006_14240)">
<path d="M28.2695 129.929C21.2345 117.744 25.4094 102.163 37.5945 95.1282L193.874 4.90002C206.059 -2.13503 221.64 2.03988 228.675 14.2249C235.71 26.41 231.535 41.991 219.35 49.0261L63.0706 139.254C50.8856 146.289 35.3046 142.114 28.2695 129.929Z" fill="#FC6575"/>
<path d="M60.1148 185.087C53.0797 172.902 57.2546 157.321 69.4397 150.286L188.028 81.8184C200.213 74.7833 215.794 78.9582 222.83 91.1433C229.865 103.328 225.69 118.909 213.505 125.944L94.9159 194.412C82.7308 201.447 67.1498 197.272 60.1148 185.087Z" fill="#FFD929"/>
<path d="M91.9598 240.244C84.9248 228.059 89.0997 212.478 101.285 205.443L165.635 168.291C177.82 161.255 193.401 165.43 200.436 177.615C207.471 189.801 203.296 205.382 191.111 212.417L126.761 249.569C114.576 256.604 98.9949 252.429 91.9598 240.244Z" fill="#6BD4F2"/>
</g>
<defs>
<clipPath id="clip0_3006_14240">
<rect width="256" height="256" fill="white"/>
</clipPath>
</defs>
</svg>
